<?xml version="1.0" encoding="utf-8"?>
<!-- Generator: Adobe Illustrator 23.0.6, SVG Export Plug-In . SVG Version: 6.00 Build 0)  -->
<svg version="1.1" xmlns="http://www.w3.org/2000/svg" xmlns:xlink="http://www.w3.org/1999/xlink" x="0px" y="0px" width="151.4px"
	 height="151.4px" viewBox="0 0 151.4 151.4" style="enable-background:new 0 0 151.4 151.4;" xml:space="preserve">
<style type="text/css">
	.st0{fill:url(#SVGID_1_);}
	.st1{fill:#FBFFFC;}
	.st2{fill:url(#SVGID_2_);}
</style>
<g id="fondo">
</g>
<g id="Layer_3">
</g>
<g id="elementos">
</g>
<g id="Layer_4">
	<g>
		
			<linearGradient id="SVGID_1_" gradientUnits="userSpaceOnUse" x1="28.2543" y1="374.8493" x2="173.2971" y2="374.8493" gradientTransform="matrix(-0.9305 -0.3662 0.3662 -0.9305 32.1768 461.394)">
			<stop  offset="0" style="stop-color:#FFB60C"/>
			<stop  offset="1" style="stop-color:#FF2483"/>
		</linearGradient>
		<circle class="st0" cx="75.7" cy="75.7" r="72.5"/>
		<g>
			<g>
				<path class="st1" d="M82,46.9c-2.4-2.7-6.4-2.9-9.1-0.5c-2.7,2.4-2.9,6.4-0.5,9.1l4.8,5.4l7.5,8.4h-7.5H48.5
					c-3.6,0-6.4,2.9-6.4,6.4c0,3.6,2.9,6.4,6.4,6.4h28.7h7.5l-7.5,8.4l-4.8,5.4c-2.4,2.7-2.1,6.7,0.5,9.1c1.2,1.1,2.8,1.6,4.3,1.6
					c1.8,0,3.5-0.7,4.8-2.2l25.6-28.8L82,46.9z"/>
				<path class="st1" d="M75.7,118.3C52.2,118.3,33,99.2,33,75.7C33,52.2,52.2,33,75.7,33c23.5,0,42.7,19.1,42.7,42.7
					C118.3,99.2,99.2,118.3,75.7,118.3z M75.7,20.1c-30.6,0-55.5,24.9-55.5,55.5c0,30.6,24.9,55.5,55.5,55.5
					c30.6,0,55.5-24.9,55.5-55.5C131.2,45.1,106.3,20.1,75.7,20.1z"/>
			</g>
		</g>
	</g>
</g>
</svg>
