<?xml version="1.0" encoding="utf-8"?>
<!-- Generator: Adobe Illustrator 23.0.6, SVG Export Plug-In . SVG Version: 6.00 Build 0)  -->
<svg version="1.1" xmlns="http://www.w3.org/2000/svg" xmlns:xlink="http://www.w3.org/1999/xlink" x="0px" y="0px" width="174.1px"
	 height="200.1px" viewBox="0 0 174.1 200.1" style="enable-background:new 0 0 174.1 200.1;" xml:space="preserve">
<style type="text/css">
	.st0{opacity:0.75;fill:#009BDB;}
	.st1{fill:#FFFFFF;}
	.st2{clip-path:url(#SVGID_2_);}
	.st3{clip-path:url(#SVGID_4_);}
	.st4{fill:#FBFFFC;}
	.st5{clip-path:url(#SVGID_8_);}
	.st6{clip-path:url(#SVGID_12_);}
	.st7{clip-path:url(#SVGID_16_);}
	.st8{clip-path:url(#SVGID_18_);}
	.st9{clip-path:url(#SVGID_22_);}
	.st10{clip-path:url(#SVGID_26_);}
	.st11{clip-path:url(#SVGID_30_);}
	.st12{clip-path:url(#SVGID_32_);}
	.st13{clip-path:url(#SVGID_36_);}
	.st14{clip-path:url(#SVGID_40_);}
	.st15{fill:url(#SVGID_43_);}
	.st16{fill:url(#SVGID_44_);}
</style>
<g id="fondo">
</g>
<g id="Layer_3">
</g>
<g id="elementos">
</g>
<g id="Layer_4">
	<g>
		<path class="st1" d="M139.2,131.2h-106v-7.9c0-17.7,35.3-27.4,53-27.4s53,9.7,53,27.4V131.2z M86.2,36.7
			c13.2,0,23.8,10.7,23.8,23.8c0,13.2-10.7,23.8-23.8,23.8S62.3,73.7,62.3,60.5C62.3,47.3,73,36.7,86.2,36.7z M148,7.5H24.4
			c-9.8,0-17.7,7.9-17.7,17.7v123.6c0,9.8,7.9,17.7,17.7,17.7h35.3L86.2,193l26.5-26.5H148c9.8,0,17.7-7.9,17.7-17.7V25.2
			C165.7,15.4,157.8,7.5,148,7.5z"/>
	</g>
</g>
</svg>
