<?xml version="1.0" encoding="utf-8"?>
<!-- Generator: Adobe Illustrator 23.0.6, SVG Export Plug-In . SVG Version: 6.00 Build 0)  -->
<svg version="1.1" xmlns="http://www.w3.org/2000/svg" xmlns:xlink="http://www.w3.org/1999/xlink" x="0px" y="0px" width="26.8px"
	 height="1080px" viewBox="0 0 26.8 1080" style="enable-background:new 0 0 26.8 1080;" xml:space="preserve">
<style type="text/css">
	.st0{opacity:0.75;fill:#009BDB;}
	.st1{fill:#FFFFFF;}
	.st2{clip-path:url(#SVGID_2_);}
	.st3{clip-path:url(#SVGID_4_);}
	.st4{fill:#FBFFFC;}
	.st5{clip-path:url(#SVGID_8_);}
	.st6{clip-path:url(#SVGID_12_);}
	.st7{clip-path:url(#SVGID_16_);}
	.st8{clip-path:url(#SVGID_18_);}
	.st9{clip-path:url(#SVGID_22_);}
	.st10{clip-path:url(#SVGID_26_);}
	.st11{clip-path:url(#SVGID_30_);}
	.st12{clip-path:url(#SVGID_32_);}
	.st13{clip-path:url(#SVGID_36_);}
	.st14{clip-path:url(#SVGID_40_);}
	.st15{fill:url(#SVGID_43_);}
	.st16{fill:url(#SVGID_44_);}
</style>
<g id="fondo">
</g>
<g id="Layer_3">
</g>
<g id="elementos">
</g>
<g id="Layer_4">
	<g>
		<polygon class="st1" points="20.5,14.6 20.5,12.2 15.1,12.2 15.1,6.8 12.8,6.8 12.8,12.2 7.3,12.2 7.3,14.6 12.8,14.6 12.8,20 
			15.1,20 15.1,14.6 		"/>
		<polygon class="st1" points="20.5,54.6 20.5,52.2 15.1,52.2 15.1,46.8 12.8,46.8 12.8,52.2 7.3,52.2 7.3,54.6 12.8,54.6 12.8,60 
			15.1,60 15.1,54.6 		"/>
		<polygon class="st1" points="20.5,94.7 20.5,92.2 15.1,92.2 15.1,86.8 12.8,86.8 12.8,92.2 7.3,92.2 7.3,94.7 12.8,94.7 12.8,100 
			15.1,100 15.1,94.7 		"/>
		<polygon class="st1" points="20.5,134.7 20.5,132.2 15.1,132.2 15.1,126.9 12.8,126.9 12.8,132.2 7.3,132.2 7.3,134.7 12.8,134.7 
			12.8,140.1 15.1,140.1 15.1,134.7 		"/>
		<polygon class="st1" points="20.5,174.7 20.5,172.3 15.1,172.3 15.1,166.9 12.8,166.9 12.8,172.3 7.3,172.3 7.3,174.7 12.8,174.7 
			12.8,180.1 15.1,180.1 15.1,174.7 		"/>
		<polygon class="st1" points="20.5,214.7 20.5,212.3 15.1,212.3 15.1,206.9 12.8,206.9 12.8,212.3 7.3,212.3 7.3,214.7 12.8,214.7 
			12.8,220.1 15.1,220.1 15.1,214.7 		"/>
		<polygon class="st1" points="20.5,254.7 20.5,252.3 15.1,252.3 15.1,246.9 12.8,246.9 12.8,252.3 7.3,252.3 7.3,254.7 12.8,254.7 
			12.8,260.1 15.1,260.1 15.1,254.7 		"/>
		<polygon class="st1" points="20.5,294.7 20.5,292.3 15.1,292.3 15.1,286.9 12.8,286.9 12.8,292.3 7.3,292.3 7.3,294.7 12.8,294.7 
			12.8,300.1 15.1,300.1 15.1,294.7 		"/>
		<polygon class="st1" points="20.5,334.8 20.5,332.3 15.1,332.3 15.1,326.9 12.8,326.9 12.8,332.3 7.3,332.3 7.3,334.8 12.8,334.8 
			12.8,340.1 15.1,340.1 15.1,334.8 		"/>
		<polygon class="st1" points="20.5,374.8 20.5,372.3 15.1,372.3 15.1,367 12.8,367 12.8,372.3 7.3,372.3 7.3,374.8 12.8,374.8 
			12.8,380.2 15.1,380.2 15.1,374.8 		"/>
		<polygon class="st1" points="20.5,414.8 20.5,412.4 15.1,412.4 15.1,407 12.8,407 12.8,412.4 7.3,412.4 7.3,414.8 12.8,414.8 
			12.8,420.2 15.1,420.2 15.1,414.8 		"/>
		<polygon class="st1" points="20.5,454.8 20.5,452.4 15.1,452.4 15.1,447 12.8,447 12.8,452.4 7.3,452.4 7.3,454.8 12.8,454.8 
			12.8,460.2 15.1,460.2 15.1,454.8 		"/>
		<polygon class="st1" points="20.5,494.8 20.5,492.4 15.1,492.4 15.1,487 12.8,487 12.8,492.4 7.3,492.4 7.3,494.8 12.8,494.8 
			12.8,500.2 15.1,500.2 15.1,494.8 		"/>
		<polygon class="st1" points="20.5,534.8 20.5,532.4 15.1,532.4 15.1,527 12.8,527 12.8,532.4 7.3,532.4 7.3,534.8 12.8,534.8 
			12.8,540.2 15.1,540.2 15.1,534.8 		"/>
		<polygon class="st1" points="20.5,574.9 20.5,572.4 15.1,572.4 15.1,567 12.8,567 12.8,572.4 7.3,572.4 7.3,574.9 12.8,574.9 
			12.8,580.3 15.1,580.3 15.1,574.9 		"/>
		<polygon class="st1" points="20.5,614.9 20.5,612.5 15.1,612.5 15.1,607.1 12.8,607.1 12.8,612.5 7.3,612.5 7.3,614.9 12.8,614.9 
			12.8,620.3 15.1,620.3 15.1,614.9 		"/>
		<polygon class="st1" points="20.5,654.9 20.5,652.5 15.1,652.5 15.1,647.1 12.8,647.1 12.8,652.5 7.3,652.5 7.3,654.9 12.8,654.9 
			12.8,660.3 15.1,660.3 15.1,654.9 		"/>
		<polygon class="st1" points="20.5,694.9 20.5,692.5 15.1,692.5 15.1,687.1 12.8,687.1 12.8,692.5 7.3,692.5 7.3,694.9 12.8,694.9 
			12.8,700.3 15.1,700.3 15.1,694.9 		"/>
		<polygon class="st1" points="20.5,734.9 20.5,732.5 15.1,732.5 15.1,727.1 12.8,727.1 12.8,732.5 7.3,732.5 7.3,734.9 12.8,734.9 
			12.8,740.3 15.1,740.3 15.1,734.9 		"/>
		<polygon class="st1" points="20.5,775 20.5,772.5 15.1,772.5 15.1,767.1 12.8,767.1 12.8,772.5 7.3,772.5 7.3,775 12.8,775 
			12.8,780.3 15.1,780.3 15.1,775 		"/>
		<polygon class="st1" points="20.5,815 20.5,812.5 15.1,812.5 15.1,807.2 12.8,807.2 12.8,812.5 7.3,812.5 7.3,815 12.8,815 
			12.8,820.4 15.1,820.4 15.1,815 		"/>
		<polygon class="st1" points="20.5,855 20.5,852.6 15.1,852.6 15.1,847.2 12.8,847.2 12.8,852.6 7.3,852.6 7.3,855 12.8,855 
			12.8,860.4 15.1,860.4 15.1,855 		"/>
		<polygon class="st1" points="20.5,895 20.5,892.6 15.1,892.6 15.1,887.2 12.8,887.2 12.8,892.6 7.3,892.6 7.3,895 12.8,895 
			12.8,900.4 15.1,900.4 15.1,895 		"/>
		<polygon class="st1" points="20.5,935 20.5,932.6 15.1,932.6 15.1,927.2 12.8,927.2 12.8,932.6 7.3,932.6 7.3,935 12.8,935 
			12.8,940.4 15.1,940.4 15.1,935 		"/>
		<polygon class="st1" points="20.5,975 20.5,972.6 15.1,972.6 15.1,967.2 12.8,967.2 12.8,972.6 7.3,972.6 7.3,975 12.8,975 
			12.8,980.4 15.1,980.4 15.1,975 		"/>
		<polygon class="st1" points="20.5,1015.1 20.5,1012.6 15.1,1012.6 15.1,1007.2 12.8,1007.2 12.8,1012.6 7.3,1012.6 7.3,1015.1 
			12.8,1015.1 12.8,1020.4 15.1,1020.4 15.1,1015.1 		"/>
		<polygon class="st1" points="20.5,1055.1 20.5,1052.6 15.1,1052.6 15.1,1047.3 12.8,1047.3 12.8,1052.6 7.3,1052.6 7.3,1055.1 
			12.8,1055.1 12.8,1060.5 15.1,1060.5 15.1,1055.1 		"/>
	</g>
</g>
</svg>
